<svg version="1.1" id="Layer_1" xmlns="http://www.w3.org/2000/svg" xmlns:xlink="http://www.w3.org/1999/xlink" x="0px" y="0px"
	 width="100%" viewBox="0 0 974 958" enable-background="new 0 0 974 958" xml:space="preserve">
<path fill="#FFFFFF" opacity="1.000000" stroke="none" 
	d="
M670.000000,959.000000 
	C446.666656,959.000000 223.833328,959.000000 1.000000,959.000000 
	C1.000000,639.666687 1.000000,320.333344 1.000000,1.000000 
	C325.666656,1.000000 650.333313,1.000000 975.000000,1.000000 
	C975.000000,320.333344 975.000000,639.666687 975.000000,959.000000 
	C873.500000,959.000000 772.000000,959.000000 670.000000,959.000000 
M570.061218,794.583130 
	C574.268555,789.004700 578.715942,783.589539 582.640442,777.818787 
	C597.479492,755.999023 608.154419,732.327026 614.359680,706.603882 
	C619.833130,683.914124 620.770996,660.882935 620.755920,637.702393 
	C620.693420,541.704834 620.727356,445.707306 620.740356,349.709778 
	C620.740784,346.712341 620.800293,343.708282 621.000488,340.718536 
	C622.995605,310.912292 656.292297,291.549591 683.204590,304.550568 
	C700.812439,313.056702 708.963745,327.463531 708.977661,346.677856 
	C709.029785,418.509308 708.932312,490.340973 709.082825,562.172119 
	C709.101562,571.125977 709.909424,580.119934 710.965820,589.022461 
	C714.961487,622.694275 728.272095,652.541260 749.876038,678.431763 
	C778.897583,713.211670 816.083740,734.069885 860.985046,740.742981 
	C869.104004,741.949646 877.358826,742.242004 885.619690,742.962402 
	C885.619690,712.902344 885.619690,683.676147 885.619690,654.246704 
	C883.606812,654.140320 881.958374,654.100525 880.318726,653.959045 
	C863.736206,652.529480 848.338745,647.665344 834.866333,637.671204 
	C809.844727,619.109497 797.597534,594.246948 797.676331,563.002869 
	C797.850098,494.171722 797.799805,425.339691 797.653198,356.508423 
	C797.631653,346.384766 797.170105,336.189209 795.901245,326.154724 
	C792.132507,296.350281 779.248657,270.703369 757.672363,249.991882 
	C726.927002,220.478745 690.026489,207.824707 647.503357,213.075363 
	C616.201538,216.940475 589.729675,230.993835 568.259277,253.767654 
	C543.096802,280.457642 531.918640,312.655182 532.019653,349.330383 
	C532.295959,449.660370 532.190674,549.991760 531.997620,650.322144 
	C531.978149,660.418030 531.216187,670.684570 529.273987,680.572388 
	C523.352112,710.720886 508.119293,735.703064 484.736633,755.524780 
	C459.013763,777.330200 428.975311,787.649841 395.369812,786.773376 
	C374.821533,786.237488 355.322083,781.007874 337.071777,771.161255 
	C312.865662,758.101257 294.503967,739.305420 281.731323,715.152527 
	C270.680695,694.255920 266.756561,671.718140 266.792389,648.126404 
	C266.987488,519.630005 266.920746,391.133057 266.845398,262.636414 
	C266.834564,244.128021 265.224274,225.776367 259.982697,207.867630 
	C249.316544,171.424835 229.291214,141.249619 199.647156,117.552116 
	C175.457947,98.215233 147.913422,86.246956 117.352821,81.477417 
	C108.445847,80.087318 99.363472,79.821045 90.273476,79.031998 
	C90.273476,109.155029 90.273476,138.252502 90.273476,167.644287 
	C91.653282,167.758377 92.776024,167.891129 93.902359,167.938385 
	C114.284874,168.793823 132.264267,175.926102 147.581604,189.278717 
	C168.720428,207.706100 178.179138,231.306564 178.158142,259.198578 
	C178.059814,389.861847 177.967224,520.525574 178.310318,651.188049 
	C178.351166,666.734741 179.742172,682.539856 182.788834,697.768738 
	C192.796082,747.790588 217.500854,789.531006 256.392426,822.734131 
	C290.296295,851.679199 329.544891,868.624573 373.667419,873.809875 
	C407.350800,877.768372 440.532715,874.406006 472.560059,862.935669 
	C510.997437,849.169739 543.785522,827.071838 570.061218,794.583130 
z"/>
<path fill="#9BA291" opacity="1.000000" stroke="none" 
	d="
M569.832397,794.853577 
	C543.785522,827.071838 510.997437,849.169739 472.560059,862.935669 
	C440.532715,874.406006 407.350800,877.768372 373.667419,873.809875 
	C329.544891,868.624573 290.296295,851.679199 256.392426,822.734131 
	C217.500854,789.531006 192.796082,747.790588 182.788834,697.768738 
	C179.742172,682.539856 178.351166,666.734741 178.310318,651.188049 
	C177.967224,520.525574 178.059814,389.861847 178.158142,259.198578 
	C178.179138,231.306564 168.720428,207.706100 147.581604,189.278717 
	C132.264267,175.926102 114.284874,168.793823 93.902359,167.938385 
	C92.776024,167.891129 91.653282,167.758377 90.273476,167.644287 
	C90.273476,138.252502 90.273476,109.155029 90.273476,79.031998 
	C99.363472,79.821045 108.445847,80.087318 117.352821,81.477417 
	C147.913422,86.246956 175.457947,98.215233 199.647156,117.552116 
	C229.291214,141.249619 249.316544,171.424835 259.982697,207.867630 
	C265.224274,225.776367 266.834564,244.128021 266.845398,262.636414 
	C266.920746,391.133057 266.987488,519.630005 266.792389,648.126404 
	C266.756561,671.718140 270.680695,694.255920 281.731323,715.152527 
	C294.503967,739.305420 312.865662,758.101257 337.071777,771.161255 
	C355.322083,781.007874 374.821533,786.237488 395.369812,786.773376 
	C428.975311,787.649841 459.013763,777.330200 484.736633,755.524780 
	C508.119293,735.703064 523.352112,710.720886 529.273987,680.572388 
	C531.216187,670.684570 531.978149,660.418030 531.997620,650.322144 
	C532.190674,549.991760 532.295959,449.660370 532.019653,349.330383 
	C531.918640,312.655182 543.096802,280.457642 568.259277,253.767654 
	C589.729675,230.993835 616.201538,216.940475 647.503357,213.075363 
	C690.026489,207.824707 726.927002,220.478745 757.672363,249.991882 
	C779.248657,270.703369 792.132507,296.350281 795.901245,326.154724 
	C797.170105,336.189209 797.631653,346.384766 797.653198,356.508423 
	C797.799805,425.339691 797.850098,494.171722 797.676331,563.002869 
	C797.597534,594.246948 809.844727,619.109497 834.866333,637.671204 
	C848.338745,647.665344 863.736206,652.529480 880.318726,653.959045 
	C881.958374,654.100525 883.606812,654.140320 885.619690,654.246704 
	C885.619690,683.676147 885.619690,712.902344 885.619690,742.962402 
	C877.358826,742.242004 869.104004,741.949646 860.985046,740.742981 
	C816.083740,734.069885 778.897583,713.211670 749.876038,678.431763 
	C728.272095,652.541260 714.961487,622.694275 710.965820,589.022461 
	C709.909424,580.119934 709.101562,571.125977 709.082825,562.172119 
	C708.932312,490.340973 709.029785,418.509308 708.977661,346.677856 
	C708.963745,327.463531 700.812439,313.056702 683.204590,304.550568 
	C656.292297,291.549591 622.995605,310.912292 621.000488,340.718536 
	C620.800293,343.708282 620.740784,346.712341 620.740356,349.709778 
	C620.727356,445.707306 620.693420,541.704834 620.755920,637.702393 
	C620.770996,660.882935 619.833130,683.914124 614.359680,706.603882 
	C608.154419,732.327026 597.479492,755.999023 582.640442,777.818787 
	C578.715942,783.589539 574.268555,789.004700 569.832397,794.853577 
z"/>
</svg>