<?xml version="1.0" encoding="UTF-8"?>
<svg xmlns="http://www.w3.org/2000/svg" xmlns:xlink="http://www.w3.org/1999/xlink" width="16px" height="16px" viewBox="0 0 16 15" version="1.1">
<g id="surface1">
<path style=" stroke:none;fill-rule:nonzero;fill:rgb(100%,100%,100%);fill-opacity:1;" d="M 11.007812 15.015625 C 7.335938 15.015625 3.675781 15.015625 0.015625 15.015625 C 0.015625 10.015625 0.015625 5.015625 0.015625 0.015625 C 5.351562 0.015625 10.683594 0.015625 16.015625 0.015625 C 16.015625 5.015625 16.015625 10.015625 16.015625 15.015625 C 14.347656 15.015625 12.683594 15.015625 11.007812 15.015625 M 9.363281 12.441406 C 9.433594 12.355469 9.507812 12.269531 9.570312 12.179688 C 9.816406 11.835938 9.988281 11.464844 10.09375 11.0625 C 10.183594 10.707031 10.199219 10.347656 10.195312 9.984375 C 10.195312 8.480469 10.195312 6.980469 10.195312 5.476562 C 10.195312 5.429688 10.199219 5.382812 10.203125 5.335938 C 10.234375 4.867188 10.78125 4.566406 11.222656 4.769531 C 11.511719 4.902344 11.644531 5.128906 11.644531 5.429688 C 11.648438 6.554688 11.644531 7.675781 11.648438 8.800781 C 11.648438 8.941406 11.660156 9.082031 11.679688 9.222656 C 11.746094 9.75 11.964844 10.21875 12.316406 10.621094 C 12.796875 11.167969 13.40625 11.492188 14.144531 11.597656 C 14.277344 11.617188 14.414062 11.621094 14.546875 11.632812 C 14.546875 11.164062 14.546875 10.703125 14.546875 10.242188 C 14.515625 10.242188 14.488281 10.242188 14.460938 10.238281 C 14.1875 10.21875 13.9375 10.140625 13.714844 9.984375 C 13.304688 9.695312 13.101562 9.304688 13.101562 8.816406 C 13.105469 7.738281 13.105469 6.660156 13.101562 5.582031 C 13.101562 5.421875 13.09375 5.265625 13.074219 5.105469 C 13.011719 4.640625 12.800781 4.238281 12.445312 3.914062 C 11.941406 3.453125 11.335938 3.253906 10.636719 3.335938 C 10.121094 3.398438 9.6875 3.617188 9.335938 3.972656 C 8.921875 4.390625 8.738281 4.894531 8.738281 5.46875 C 8.742188 7.039062 8.742188 8.613281 8.738281 10.183594 C 8.738281 10.339844 8.726562 10.5 8.695312 10.65625 C 8.597656 11.128906 8.347656 11.519531 7.960938 11.828125 C 7.539062 12.171875 7.046875 12.332031 6.496094 12.320312 C 6.15625 12.3125 5.835938 12.230469 5.539062 12.074219 C 5.140625 11.871094 4.835938 11.574219 4.628906 11.199219 C 4.445312 10.871094 4.382812 10.515625 4.382812 10.148438 C 4.386719 8.136719 4.382812 6.125 4.382812 4.113281 C 4.382812 3.824219 4.355469 3.535156 4.269531 3.253906 C 4.09375 2.683594 3.765625 2.210938 3.28125 1.839844 C 2.882812 1.539062 2.429688 1.351562 1.929688 1.277344 C 1.78125 1.253906 1.632812 1.25 1.484375 1.238281 C 1.484375 1.710938 1.484375 2.164062 1.484375 2.625 C 1.503906 2.625 1.523438 2.628906 1.542969 2.628906 C 1.878906 2.644531 2.171875 2.753906 2.425781 2.964844 C 2.773438 3.253906 2.925781 3.621094 2.925781 4.058594 C 2.925781 6.105469 2.921875 8.148438 2.929688 10.195312 C 2.929688 10.441406 2.953125 10.6875 3.003906 10.925781 C 3.167969 11.707031 3.574219 12.363281 4.210938 12.882812 C 4.769531 13.335938 5.414062 13.601562 6.136719 13.683594 C 6.691406 13.742188 7.238281 13.691406 7.761719 13.511719 C 8.394531 13.296875 8.933594 12.949219 9.363281 12.441406 Z M 9.363281 12.441406 "/>
<path style=" stroke:none;fill-rule:nonzero;fill:rgb(60.784314%,63.529412%,56.862745%);fill-opacity:1;" d="M 9.359375 12.445312 C 8.933594 12.949219 8.394531 13.296875 7.761719 13.511719 C 7.238281 13.691406 6.691406 13.742188 6.136719 13.683594 C 5.414062 13.601562 4.769531 13.335938 4.210938 12.882812 C 3.574219 12.363281 3.167969 11.707031 3.003906 10.925781 C 2.953125 10.6875 2.929688 10.441406 2.929688 10.195312 C 2.921875 8.148438 2.925781 6.105469 2.925781 4.058594 C 2.925781 3.621094 2.773438 3.253906 2.425781 2.964844 C 2.171875 2.753906 1.878906 2.644531 1.542969 2.628906 C 1.523438 2.628906 1.503906 2.625 1.484375 2.625 C 1.484375 2.164062 1.484375 1.710938 1.484375 1.238281 C 1.632812 1.25 1.78125 1.253906 1.929688 1.277344 C 2.429688 1.351562 2.882812 1.539062 3.28125 1.839844 C 3.765625 2.210938 4.09375 2.683594 4.269531 3.253906 C 4.355469 3.535156 4.382812 3.824219 4.382812 4.113281 C 4.382812 6.125 4.386719 8.136719 4.382812 10.148438 C 4.382812 10.515625 4.445312 10.871094 4.628906 11.199219 C 4.835938 11.574219 5.140625 11.871094 5.539062 12.074219 C 5.835938 12.230469 6.15625 12.3125 6.496094 12.320312 C 7.046875 12.332031 7.539062 12.171875 7.960938 11.828125 C 8.347656 11.519531 8.597656 11.128906 8.695312 10.65625 C 8.726562 10.5 8.738281 10.339844 8.738281 10.183594 C 8.742188 8.613281 8.742188 7.039062 8.738281 5.46875 C 8.738281 4.894531 8.921875 4.390625 9.335938 3.972656 C 9.6875 3.617188 10.121094 3.398438 10.636719 3.335938 C 11.335938 3.253906 11.941406 3.453125 12.445312 3.914062 C 12.800781 4.238281 13.011719 4.640625 13.074219 5.105469 C 13.09375 5.265625 13.101562 5.421875 13.101562 5.582031 C 13.105469 6.660156 13.105469 7.738281 13.101562 8.816406 C 13.101562 9.304688 13.304688 9.695312 13.714844 9.984375 C 13.9375 10.140625 14.1875 10.21875 14.460938 10.238281 C 14.488281 10.242188 14.515625 10.242188 14.546875 10.242188 C 14.546875 10.703125 14.546875 11.164062 14.546875 11.632812 C 14.414062 11.621094 14.277344 11.617188 14.144531 11.597656 C 13.40625 11.492188 12.796875 11.167969 12.316406 10.621094 C 11.964844 10.21875 11.746094 9.75 11.679688 9.222656 C 11.660156 9.082031 11.648438 8.941406 11.648438 8.800781 C 11.644531 7.675781 11.648438 6.554688 11.644531 5.429688 C 11.644531 5.128906 11.511719 4.902344 11.222656 4.769531 C 10.78125 4.566406 10.234375 4.867188 10.203125 5.335938 C 10.199219 5.382812 10.195312 5.429688 10.195312 5.476562 C 10.195312 6.980469 10.195312 8.480469 10.195312 9.984375 C 10.199219 10.347656 10.183594 10.707031 10.09375 11.0625 C 9.988281 11.464844 9.816406 11.835938 9.570312 12.179688 C 9.507812 12.269531 9.433594 12.355469 9.359375 12.445312 Z M 9.359375 12.445312 "/>
</g>
</svg>
